<svg width="407" height="429" viewBox="0 0 407 429" fill="none" xmlns="http://www.w3.org/2000/svg">
<path d="M337.324 1.5C339.517 3.11917 339.517 3.11917 341.793 5.24658C342.667 6.06266 343.541 6.87874 344.442 7.71954C349.932 12.9891 355.323 18.3563 360.699 23.7422C361.958 25.0002 363.217 26.2581 364.476 27.5159C367.092 30.1314 369.708 32.7486 372.321 35.3672C375.672 38.723 379.026 42.0743 382.382 45.4243C384.973 48.0115 387.561 50.6011 390.149 53.1914C391.386 54.429 392.624 55.6657 393.862 56.9017C395.585 58.622 397.304 60.3455 399.023 62.0698C399.533 62.5779 400.043 63.086 400.569 63.6094C404.356 67.4196 406.616 69.9029 406.699 75.375C406.635 79.0507 406.425 80.3345 404.449 83.5625C401.032 86.6778 398.379 87.0524 393.853 86.9436C390.879 86.422 389.806 85.5988 387.615 83.5584C386.58 82.6011 386.58 82.6011 385.524 81.6245C381.574 77.8099 377.664 73.9614 373.793 70.0664C372.916 69.1885 372.04 68.3105 371.137 67.406C368.363 64.6272 365.594 61.8449 362.824 59.0625C360.934 57.1668 359.043 55.2719 357.152 53.377C352.54 48.7539 347.931 44.1281 343.324 39.5C343.32 40.4601 343.317 41.4201 343.313 42.4093C343.276 51.5423 343.218 60.6749 343.14 69.8077C343.101 74.5008 343.068 79.1937 343.053 83.887C343.038 88.4325 343.003 92.9775 342.956 97.5228C342.941 99.2403 342.933 100.958 342.932 102.675C342.899 136.117 330.947 165.509 307.324 189.5C297.969 197.968 287.349 204.758 276.886 211.75C274.979 213.03 273.072 214.311 271.166 215.592C257.025 225.078 242.812 234.453 228.581 243.802C212.964 254.062 197.446 264.461 181.972 274.935C173.364 280.759 164.746 286.564 156.082 292.305C155.261 292.849 154.441 293.393 153.596 293.953C149.76 296.496 145.922 299.034 142.078 301.564C116.887 318.204 97.4072 336.793 90.0114 367.062C89.772 368.034 89.772 368.034 89.5278 369.025C87.4925 378.136 87.2871 387.478 87.1833 396.777C87.1736 397.485 87.1639 398.192 87.1539 398.921C87.0943 403.292 87.0943 403.292 87.0734 407.662C87.0701 409.827 87.0356 411.989 86.9958 414.152C86.9864 415.421 86.9771 416.689 86.9675 417.996C86.1239 422.589 84.5893 424.218 81.3239 427.5C77.4156 429.255 73.9837 428.724 70.0114 427.375C66.9212 425.219 65.9032 423.913 64.3239 420.5C63.8945 417.567 63.9033 414.671 63.9255 411.711C63.9226 410.853 63.9197 409.995 63.9168 409.111C63.9147 407.291 63.9203 405.47 63.9328 403.649C63.9486 400.932 63.9331 398.217 63.9138 395.5C63.8766 365.973 70.9501 335.911 91.3239 313.5C92.0432 312.663 92.7625 311.827 93.5036 310.965C102.577 300.557 112.73 292.969 124.208 285.446C128.572 282.585 132.921 279.7 137.273 276.82C138.636 275.92 138.636 275.92 140.027 275.001C149.009 269.062 157.928 263.032 166.844 256.993C182.266 246.552 197.758 236.225 213.324 226C227.653 216.585 241.943 207.115 256.166 197.54C258.039 196.28 259.913 195.02 261.787 193.761C264.389 192.014 266.988 190.262 269.586 188.508C270.34 188.002 271.094 187.496 271.871 186.974C280.892 180.967 280.892 180.967 288.958 173.793C290.324 172.5 290.324 172.5 292.324 172.5C292.58 171.917 292.837 171.335 293.101 170.734C294.434 168.299 295.936 166.72 297.886 164.75C314.746 146.081 319.867 121.234 319.617 96.8477C319.611 95.21 319.607 93.5723 319.604 91.9347C319.593 87.6785 319.563 83.4225 319.53 79.1664C319.499 74.8018 319.485 70.437 319.47 66.0723C319.438 57.548 319.387 49.0241 319.324 40.5C318.485 41.3423 318.485 41.3423 317.629 42.2016C312.364 47.4869 307.096 52.7698 301.826 58.05C299.116 60.7648 296.407 63.4806 293.701 66.1985C291.09 68.8202 288.477 71.4394 285.862 74.0569C284.863 75.0572 283.866 76.0584 282.869 77.0605C281.476 78.4612 280.079 79.8585 278.682 81.2556C277.887 82.0528 277.092 82.85 276.273 83.6714C272.892 86.8434 270.144 86.9117 265.652 86.832C261.438 86.231 260.032 84.8175 257.324 81.5C256.27 78.4187 255.805 75.7232 256.324 72.5C259.189 67.6898 262.63 63.9071 266.59 59.9756C267.208 59.3537 267.826 58.7318 268.463 58.0911C270.495 56.0505 272.534 54.0172 274.574 51.9844C275.994 50.5631 277.413 49.1416 278.833 47.7198C281.802 44.7478 284.774 41.7794 287.75 38.8135C291.563 35.0116 295.367 31.2007 299.169 27.3871C302.096 24.453 305.027 21.5237 307.961 18.5958C309.365 17.1922 310.769 15.7872 312.171 14.3806C314.128 12.4178 316.092 10.4615 318.058 8.50684C318.636 7.92501 319.214 7.34318 319.809 6.74371C325.51 1.1025 329.525 -0.978481 337.324 1.5Z" fill="#EFCFFF"/>
<path d="M81.3239 1.5C83.5173 3.11917 83.5173 3.11917 85.7927 5.24658C86.6668 6.06266 87.5409 6.87874 88.4416 7.71954C93.9317 12.9891 99.3233 18.3563 104.699 23.7422C105.958 25.0002 107.217 26.2581 108.476 27.5159C111.092 30.1314 113.708 32.7486 116.321 35.3672C119.672 38.723 123.026 42.0743 126.382 45.4243C128.973 48.0115 131.561 50.6011 134.149 53.1914C135.386 54.429 136.624 55.6657 137.862 56.9017C139.585 58.622 141.304 60.3455 143.023 62.0698C143.533 62.5779 144.043 63.086 144.569 63.6094C148.356 67.4196 150.616 69.9029 150.699 75.375C150.635 79.0507 150.425 80.3345 148.449 83.5625C144.995 86.7118 142.318 87.0338 137.75 86.9609C133.121 86.0814 130.48 82.7966 127.324 79.5C126.063 78.2548 126.063 78.2548 124.777 76.9844C122.272 74.5091 119.796 72.0082 117.324 69.5C116.468 68.6441 115.612 67.7881 114.73 66.9063C113.343 65.5189 111.959 64.1278 110.586 62.7266C107.659 59.7495 104.682 56.9041 101.511 54.1875C98.2121 51.3524 95.1278 48.3553 92.0622 45.2695C91.1718 44.3747 90.2815 43.4798 89.3642 42.5579C88.3542 41.5392 88.3542 41.5392 87.3239 40.5C87.277 48.5164 87.2418 56.5328 87.2203 64.5493C87.21 68.2739 87.196 71.9984 87.173 75.7229C86.9605 111.145 88.7145 144.188 114.76 170.978C119.721 175.85 125.01 180.248 130.765 184.148C133.721 186.712 134.288 189.102 134.636 192.938C134.303 196.739 133.632 198.508 131.324 201.5C127.651 203.949 125.475 204.161 121.136 204.066C115.531 202.938 111.567 199.143 107.324 195.5C106.454 194.768 105.584 194.036 104.687 193.281C81.2408 172.887 66.9422 144.435 64.3239 113.5C63.7577 101.795 63.7286 90.0715 63.6544 78.3554C63.6242 74.0773 63.5778 69.7994 63.5329 65.5215C63.4477 57.1811 63.38 48.8407 63.3239 40.5C62.7646 41.0615 62.2053 41.6231 61.629 42.2016C56.3637 47.4869 51.0961 52.7698 45.8257 58.05C43.1161 60.7648 40.4074 63.4806 37.7009 66.1985C35.09 68.8202 32.4768 71.4394 29.8619 74.0569C28.8634 75.0572 27.8659 76.0584 26.8692 77.0605C25.4757 78.4612 24.0788 79.8585 22.6818 81.2556C21.8868 82.0528 21.0919 82.85 20.2728 83.6714C16.8922 86.8434 14.1438 86.9117 9.65203 86.832C5.43778 86.231 4.03209 84.8175 1.32391 81.5C0.270386 78.4187 -0.194774 75.7232 0.323907 72.5C3.18859 67.6898 6.63029 63.9071 10.5895 59.9756C11.2079 59.3537 11.8263 58.7318 12.4634 58.0911C14.4953 56.0505 16.5343 54.0172 18.5739 51.9844C19.9938 50.5631 21.4134 49.1416 22.8327 47.7198C25.8018 44.7478 28.7745 41.7794 31.7497 38.8135C35.563 35.0116 39.3673 31.2007 43.1689 27.3871C46.0958 24.453 49.0274 21.5237 51.9605 18.5958C53.3654 17.1922 54.7688 15.7872 56.1707 14.3806C58.1284 12.4178 60.0925 10.4615 62.0583 8.50684C62.6361 7.92501 63.2138 7.34318 63.8091 6.74371C69.5101 1.1025 73.5248 -0.978481 81.3239 1.5Z" fill="#EFCFFF"/>
<path d="M289.324 289.5C293.749 292.015 297.485 295.176 301.324 298.5C302.181 299.196 303.038 299.892 303.922 300.609C325.095 318.461 339.091 346.16 342.324 373.5C342.666 380.394 342.636 387.306 342.674 394.206C342.691 396.446 342.718 398.685 342.756 400.924C342.811 404.17 342.833 407.414 342.847 410.66C342.87 411.657 342.893 412.654 342.916 413.681C342.902 418.241 342.852 421.481 339.918 425.121C336.801 427.98 335.373 428.461 331.316 428.668C328.058 428.393 325.985 427.356 323.324 425.5C319.715 421.007 319.898 416.854 319.918 411.352C319.907 410.462 319.896 409.572 319.885 408.656C319.851 405.812 319.835 402.969 319.824 400.125C319.714 372.472 314.96 348.169 296.324 326.5C295.185 325.046 295.185 325.046 294.023 323.562C291.174 320.137 287.823 317.585 284.261 314.937C273.969 307.27 273.969 307.27 272.793 302.219C272.85 298.169 272.999 296.019 275.199 292.5C279.382 288.563 283.816 288.37 289.324 289.5Z" fill="#EFCFFF"/>
</svg>
