<svg width="61" height="67" viewBox="0 0 61 67" fill="none" xmlns="http://www.w3.org/2000/svg">
<path d="M59 22.7271V44.2729C59 47.8009 57.1178 51.077 54.0749 52.8725L35.4409 63.677C32.3979 65.441 28.6335 65.441 25.5592 63.677L6.92518 52.8725C3.88225 51.1085 2 47.8324 2 44.2729V22.7271C2 19.1991 3.88225 15.923 6.92518 14.1275L25.5592 3.323C28.6021 1.559 32.3666 1.559 35.4409 3.323L54.0749 14.1275C57.1178 15.923 59 19.1676 59 22.7271Z" stroke="#EFCFFF" stroke-width="3" stroke-miterlimit="10" stroke-linecap="round" stroke-linejoin="round"/>
<path d="M23.4574 29.72C23.4574 24.869 26.8768 22.8846 31.049 25.3101L37.574 29.09C41.7463 31.5155 41.7463 35.4846 37.574 37.9101L31.049 41.6899C26.8768 44.1154 23.4574 42.131 23.4574 37.2801V29.72Z" stroke="#EFCFFF" stroke-width="3" stroke-miterlimit="10" stroke-linecap="round" stroke-linejoin="round"/>
</svg>
