<svg width="60" height="63" viewBox="0 0 60 63" fill="none" xmlns="http://www.w3.org/2000/svg">
<g opacity="0.75">
<path d="M51.6552 26.4288C51.6552 44.4803 29.5173 59.9531 29.5173 59.9531C29.5173 59.9531 7.37933 44.4803 7.37933 26.4288C7.37933 20.2733 9.71172 14.37 13.8634 10.0174C18.0151 5.66485 23.6459 3.2196 29.5173 3.2196C35.3886 3.2196 41.0195 5.66485 45.1712 10.0174C49.3229 14.37 51.6552 20.2733 51.6552 26.4288Z" stroke="#EFCFFF" stroke-width="4" stroke-linecap="round" stroke-linejoin="round"/>
<path d="M29.5173 34.1651C33.5928 34.1651 36.8966 30.7014 36.8966 26.4288C36.8966 22.1561 33.5928 18.6924 29.5173 18.6924C25.4418 18.6924 22.138 22.1561 22.138 26.4288C22.138 30.7014 25.4418 34.1651 29.5173 34.1651Z" stroke="#EFCFFF" stroke-width="4" stroke-linecap="round" stroke-linejoin="round"/>
</g>
</svg>
