<svg width="50" height="49" viewBox="0 0 50 49" fill="none" xmlns="http://www.w3.org/2000/svg">
<path d="M28.8086 4.15723C27.6579 0.567901 22.702 0.455361 21.3135 3.82031L21.1914 4.15723L18.7588 11.7432C17.9626 14.2267 15.653 15.9121 13.0449 15.9121H5.0332C1.29238 15.9124 -0.344233 20.539 2.38379 22.9102L2.66211 23.1328L9.25879 27.9902C11.2685 29.4703 12.1456 32.0336 11.4834 34.4229L11.4141 34.6533L8.92188 42.4277C7.77444 46.0069 11.7186 48.9794 14.8066 47.0703L15.1025 46.8701L21.4424 42.2012C23.4923 40.6919 26.2626 40.6453 28.3574 42.0605L28.5576 42.2012L34.8975 46.8701C37.924 49.0984 41.9985 46.3078 41.1738 42.7725L41.0781 42.4277L38.5859 34.6533C37.824 32.2764 38.6143 29.6853 40.5508 28.1367L40.7412 27.9902L47.3379 23.1328C50.4476 20.843 48.8285 15.9124 44.9668 15.9121H36.9551C34.4284 15.9121 32.182 14.3305 31.3203 11.9736L31.2412 11.7432L28.8086 4.15723Z" stroke="#EFCFFF" stroke-width="2"/>
</svg>
