<svg width="200" height="200" viewBox="0 0 200 200" fill="none" xmlns="http://www.w3.org/2000/svg">
<mask id="path-1-inside-1_286_632" fill="white">
<path d="M69.892 2.50719C72.9028 4.52034 75.0512 7.4557 76.181 10.89C76.6324 13.4367 76.6324 13.4367 76.6324 21.0767C92.0526 21.0767 107.473 21.0767 123.36 21.0767C123.36 18.5555 123.36 16.0343 123.36 13.4367C124.446 8.53465 126.347 4.94097 130.554 2.06948C134.489 -0.249487 139.318 -0.343932 143.737 0.52755C147.686 1.88858 150.611 4.8146 152.486 8.47596C153.457 10.579 154.002 12.2926 153.987 14.6105C153.986 14.988 153.985 15.3656 153.983 15.7545C153.98 16.1452 153.976 16.5358 153.972 16.9383C153.971 17.3356 153.969 17.7328 153.967 18.142C153.962 19.1203 153.955 20.0985 153.946 21.0767C154.652 21.0667 154.652 21.0667 155.372 21.0565C157.147 21.0331 158.922 21.0187 160.697 21.0067C161.46 21.0004 162.223 20.9918 162.986 20.9806C173.24 20.8348 182.708 23.0728 190.381 30.3072C195.846 35.6361 199.729 42.1882 199.985 49.9736C199.992 50.9011 199.992 51.8287 199.986 52.7563C199.988 53.2718 199.99 53.7873 199.992 54.3185C199.996 55.7345 199.995 57.1503 199.991 58.5663C199.988 60.0992 199.992 61.6321 199.996 63.165C200.002 66.162 200 69.159 199.997 72.156C199.994 74.5932 199.993 77.0303 199.995 79.4674C199.995 79.8151 199.995 80.1628 199.995 80.521C199.996 81.2275 199.996 81.934 199.997 82.6405C200 89.2554 199.996 95.8703 199.989 102.485C199.984 108.153 199.985 113.821 199.99 119.489C199.997 126.082 200 132.674 199.996 139.266C199.996 139.97 199.995 140.674 199.995 141.378C199.995 141.724 199.994 142.07 199.994 142.427C199.993 144.859 199.995 147.292 199.998 149.724C200.002 152.691 200.001 155.658 199.994 158.624C199.99 160.136 199.989 161.648 199.993 163.16C199.998 164.803 199.992 166.446 199.986 168.089C199.989 168.561 199.992 169.033 199.995 169.52C199.942 176.61 197.343 183.034 192.603 188.308C192.293 188.657 191.984 189.005 191.665 189.364C185.933 195.462 177.804 199.214 169.467 199.887C167.938 199.932 166.414 199.94 164.885 199.933C164.3 199.935 163.714 199.937 163.129 199.94C161.539 199.946 159.949 199.944 158.358 199.941C156.636 199.939 154.914 199.944 153.192 199.949C149.825 199.956 146.458 199.956 143.091 199.954C140.352 199.952 137.613 199.953 134.875 199.955C134.484 199.956 134.093 199.956 133.69 199.956C132.896 199.957 132.101 199.958 131.307 199.958C123.87 199.964 116.434 199.962 108.997 199.957C102.206 199.953 95.4156 199.958 88.6248 199.968C81.6377 199.979 74.6507 199.983 67.6637 199.98C63.7467 199.978 59.8297 199.979 55.9128 199.987C52.5782 199.993 49.2436 199.993 45.909 199.986C44.2106 199.982 42.5123 199.981 40.8139 199.988C24.7459 200.045 24.7459 200.045 18.2224 196.426C17.9419 196.277 17.6614 196.128 17.3724 195.974C16.5874 195.552 15.8111 195.116 15.0364 194.675C14.4943 194.375 14.4943 194.375 13.9413 194.068C7.03304 189.872 2.2628 182.674 0.353174 174.913C-0.0133414 172.858 0.0507341 170.783 0.0577151 168.701C0.0552775 167.928 0.0552757 167.928 0.0527888 167.138C0.0491746 165.714 0.0493474 164.289 0.0511683 162.864C0.0522188 161.325 0.048384 159.786 0.045205 158.246C0.0397954 155.233 0.0390243 152.22 0.0400194 149.207C0.0407777 146.757 0.0400375 144.306 0.0382304 141.856C0.0379776 141.507 0.0377196 141.158 0.0374591 140.798C0.0369443 140.089 0.0364331 139.38 0.0359164 138.67C0.0312983 132.022 0.0322101 125.373 0.0348015 118.724C0.0369963 112.648 0.0322174 106.573 0.0241387 100.497C0.0158991 94.2518 0.0124061 88.0069 0.014001 81.762C0.0148121 78.2585 0.0137623 74.755 0.0077459 71.2515C0.00267468 68.2683 0.00210139 65.2852 0.00723383 62.302C0.00972839 60.7815 0.0102209 59.2611 0.00510776 57.7406C-0.000383787 56.0883 0.00410901 54.4361 0.00948954 52.7838C0.00635695 52.3088 0.00322752 51.8338 0 51.3444C0.0507289 43.91 2.86286 37.5982 7.81485 32.1123C8.0662 31.8217 8.31754 31.5312 8.5765 31.2319C14.1484 25.1898 23.029 21.3008 31.1985 20.9402C33.4585 20.891 35.7159 20.9273 37.9756 20.9706C38.7633 20.9791 39.5509 20.9869 40.3386 20.9938C42.2416 21.0122 44.1441 21.0414 46.0468 21.0767C46.0432 20.8334 46.0396 20.5902 46.0359 20.3395C46.0214 19.2257 46.0125 18.1119 46.0037 16.998C45.9979 16.6154 45.9921 16.2327 45.9862 15.8385C45.9566 10.8699 47.5845 7.39107 50.9702 3.80871C56.1827 -1.10536 63.9714 -0.959883 69.892 2.50719ZM56.8427 10.6645C55.3536 12.4189 54.9149 13.4533 54.8924 15.7068C54.887 16.1815 54.8815 16.6562 54.8759 17.1453C54.8728 17.6608 54.8696 18.1763 54.8664 18.7074C54.863 19.2362 54.8595 19.7649 54.856 20.3097C54.8501 21.4312 54.8454 22.5526 54.8422 23.674C54.8385 24.8215 54.8296 25.9687 54.8161 27.116C54.798 28.7699 54.7911 30.4235 54.7867 32.0775C54.7793 32.5887 54.7719 33.0999 54.7642 33.6266C54.7716 36.4753 54.941 38.2946 56.6668 40.6012C58.0037 41.8435 59.358 42.2643 61.1538 42.4847C63.4121 42.1975 64.8739 41.4598 66.3576 39.7523C67.5652 38.0975 67.7656 37.0042 67.7868 35.011C67.7922 34.5631 67.7977 34.1153 67.8033 33.6539C67.8065 33.1698 67.8096 32.6857 67.8128 32.1869C67.8162 31.688 67.8197 31.1891 67.8232 30.6751C67.8291 29.618 67.8337 28.5608 67.837 27.5036C67.8443 25.892 67.8629 24.2807 67.8817 22.6692C67.886 21.6415 67.8896 20.6138 67.8925 19.5862C67.8999 19.1063 67.9073 18.6265 67.915 18.1321C67.9075 15.377 67.6842 13.1581 66.0124 10.89C63.1574 8.47149 59.7165 8.00531 56.8427 10.6645ZM134.156 10.6496C132.613 12.4365 132.229 13.808 132.213 16.1082C132.209 16.5673 132.205 17.0263 132.2 17.4993C132.199 17.9954 132.197 18.4914 132.195 19.0025C132.192 19.5129 132.19 20.0232 132.188 20.5489C132.184 21.6297 132.181 22.7104 132.179 23.7911C132.175 25.4428 132.162 27.0942 132.148 28.7457C132.146 29.7955 132.143 30.8453 132.142 31.8951C132.137 32.3886 132.131 32.8821 132.126 33.3905C132.134 36.1743 132.227 38.2968 134.193 40.4503C136.282 42.0757 137.699 42.5598 140.352 42.299C142.079 41.5644 143.351 40.7565 144.424 39.1996C145.315 36.8722 145.215 34.6503 145.209 32.1786C145.213 31.3876 145.213 31.3876 145.216 30.5806C145.22 29.1831 145.216 27.7859 145.212 26.3885C145.211 25.5341 145.216 24.6798 145.223 23.8254C145.236 22.1796 145.238 20.5341 145.236 18.8881C145.241 18.3801 145.245 17.872 145.25 17.3485C145.228 14.6518 145.186 12.9157 143.326 10.89C140.389 8.52964 137.1 7.99049 134.156 10.6496ZM13.762 38.9034C7.33649 46.3569 8.66445 55.2451 8.66445 64.7946C68.9435 64.7946 129.223 64.7946 191.328 64.7946C191.747 49.4748 191.747 49.4748 184.717 37.1791C179.646 32.344 173.277 29.9042 166.35 29.9486C165.817 29.9495 165.817 29.9495 165.273 29.9504C164.144 29.9528 163.014 29.9581 161.884 29.9635C161.116 29.9656 160.348 29.9676 159.58 29.9693C157.702 29.974 155.824 29.9813 153.946 29.99C153.939 30.2492 153.932 30.5084 153.924 30.7755C153.747 36.9716 153.592 42.1162 149.273 46.9679C145.97 49.8766 142.049 51.0546 137.687 50.9073C133.479 50.4735 129.928 48.6677 127.051 45.5619C123.365 40.9375 123.685 35.8272 123.36 29.99C107.94 29.99 92.5199 29.99 76.6324 29.99C76.4922 32.5113 76.352 35.0325 76.2076 37.6301C75.6193 41.9049 73.6972 45.3041 70.3235 48.0423C66.9183 50.3682 63.2953 51.18 59.2156 50.7879C54.5242 49.8043 51.3457 48.2544 48.6487 44.262C46.5926 41.0228 46.3364 37.7548 46.2061 34.0223C46.1897 33.6327 46.1733 33.2432 46.1563 32.8418C46.1167 31.8913 46.0803 30.9408 46.0468 29.99C43.8412 29.9582 41.6358 29.9353 39.4301 29.9201C38.6819 29.9138 37.9338 29.9051 37.1858 29.894C27.7493 29.7574 20.3232 31.8704 13.762 38.9034ZM8.66445 73.708C8.63817 89.413 8.61188 105.118 8.5848 121.299C8.5732 126.253 8.5616 131.207 8.54964 136.311C8.54538 140.762 8.54538 140.762 8.54282 145.213C8.54163 147.192 8.53687 149.17 8.52991 151.148C8.52113 153.677 8.51855 156.205 8.52035 158.733C8.51998 159.658 8.51747 160.583 8.51252 161.508C8.47037 169.775 8.95459 176.841 14.9352 183.11C15.249 183.425 15.5628 183.74 15.886 184.064C16.1166 184.304 16.3471 184.544 16.5846 184.792C22.6806 190.605 31.2641 191.347 39.2301 191.336C39.7707 191.337 40.3114 191.338 40.8684 191.339C42.3585 191.342 43.8485 191.342 45.3386 191.341C46.9498 191.341 48.5611 191.343 50.1723 191.345C53.325 191.349 56.4776 191.35 59.6303 191.35C62.1944 191.351 64.7586 191.351 67.3227 191.353C74.6017 191.356 81.8808 191.358 89.1599 191.358C89.5518 191.358 89.9437 191.358 90.3475 191.358C90.7399 191.358 91.1323 191.358 91.5366 191.358C97.8944 191.358 104.252 191.362 110.61 191.368C117.147 191.374 123.684 191.377 130.221 191.377C133.888 191.376 137.554 191.378 141.221 191.382C144.343 191.386 147.464 191.387 150.586 191.384C152.177 191.383 153.768 191.383 155.358 191.386C157.088 191.39 158.817 191.388 160.547 191.384C161.042 191.387 161.538 191.389 162.048 191.391C170.638 191.355 178.548 189.59 184.903 183.507C189.998 178.137 191.404 172.401 191.379 165.174C191.38 164.782 191.38 164.39 191.38 163.987C191.381 162.676 191.379 161.366 191.377 160.056C191.376 159.1 191.376 158.143 191.377 157.186C191.377 154.628 191.374 152.07 191.371 149.512C191.369 147.111 191.369 144.709 191.368 142.307C191.366 135.287 191.36 128.266 191.355 121.246C191.346 105.558 191.337 89.8708 191.328 73.708C131.049 73.708 70.7702 73.708 8.66445 73.708Z"/>
</mask>
<path d="M69.892 2.50719C72.9028 4.52034 75.0512 7.4557 76.181 10.89C76.6324 13.4367 76.6324 13.4367 76.6324 21.0767C92.0526 21.0767 107.473 21.0767 123.36 21.0767C123.36 18.5555 123.36 16.0343 123.36 13.4367C124.446 8.53465 126.347 4.94097 130.554 2.06948C134.489 -0.249487 139.318 -0.343932 143.737 0.52755C147.686 1.88858 150.611 4.8146 152.486 8.47596C153.457 10.579 154.002 12.2926 153.987 14.6105C153.986 14.988 153.985 15.3656 153.983 15.7545C153.98 16.1452 153.976 16.5358 153.972 16.9383C153.971 17.3356 153.969 17.7328 153.967 18.142C153.962 19.1203 153.955 20.0985 153.946 21.0767C154.652 21.0667 154.652 21.0667 155.372 21.0565C157.147 21.0331 158.922 21.0187 160.697 21.0067C161.46 21.0004 162.223 20.9918 162.986 20.9806C173.24 20.8348 182.708 23.0728 190.381 30.3072C195.846 35.6361 199.729 42.1882 199.985 49.9736C199.992 50.9011 199.992 51.8287 199.986 52.7563C199.988 53.2718 199.99 53.7873 199.992 54.3185C199.996 55.7345 199.995 57.1503 199.991 58.5663C199.988 60.0992 199.992 61.6321 199.996 63.165C200.002 66.162 200 69.159 199.997 72.156C199.994 74.5932 199.993 77.0303 199.995 79.4674C199.995 79.8151 199.995 80.1628 199.995 80.521C199.996 81.2275 199.996 81.934 199.997 82.6405C200 89.2554 199.996 95.8703 199.989 102.485C199.984 108.153 199.985 113.821 199.99 119.489C199.997 126.082 200 132.674 199.996 139.266C199.996 139.97 199.995 140.674 199.995 141.378C199.995 141.724 199.994 142.07 199.994 142.427C199.993 144.859 199.995 147.292 199.998 149.724C200.002 152.691 200.001 155.658 199.994 158.624C199.99 160.136 199.989 161.648 199.993 163.16C199.998 164.803 199.992 166.446 199.986 168.089C199.989 168.561 199.992 169.033 199.995 169.52C199.942 176.61 197.343 183.034 192.603 188.308C192.293 188.657 191.984 189.005 191.665 189.364C185.933 195.462 177.804 199.214 169.467 199.887C167.938 199.932 166.414 199.94 164.885 199.933C164.3 199.935 163.714 199.937 163.129 199.94C161.539 199.946 159.949 199.944 158.358 199.941C156.636 199.939 154.914 199.944 153.192 199.949C149.825 199.956 146.458 199.956 143.091 199.954C140.352 199.952 137.613 199.953 134.875 199.955C134.484 199.956 134.093 199.956 133.69 199.956C132.896 199.957 132.101 199.958 131.307 199.958C123.87 199.964 116.434 199.962 108.997 199.957C102.206 199.953 95.4156 199.958 88.6248 199.968C81.6377 199.979 74.6507 199.983 67.6637 199.98C63.7467 199.978 59.8297 199.979 55.9128 199.987C52.5782 199.993 49.2436 199.993 45.909 199.986C44.2106 199.982 42.5123 199.981 40.8139 199.988C24.7459 200.045 24.7459 200.045 18.2224 196.426C17.9419 196.277 17.6614 196.128 17.3724 195.974C16.5874 195.552 15.8111 195.116 15.0364 194.675C14.4943 194.375 14.4943 194.375 13.9413 194.068C7.03304 189.872 2.2628 182.674 0.353174 174.913C-0.0133414 172.858 0.0507341 170.783 0.0577151 168.701C0.0552775 167.928 0.0552757 167.928 0.0527888 167.138C0.0491746 165.714 0.0493474 164.289 0.0511683 162.864C0.0522188 161.325 0.048384 159.786 0.045205 158.246C0.0397954 155.233 0.0390243 152.22 0.0400194 149.207C0.0407777 146.757 0.0400375 144.306 0.0382304 141.856C0.0379776 141.507 0.0377196 141.158 0.0374591 140.798C0.0369443 140.089 0.0364331 139.38 0.0359164 138.67C0.0312983 132.022 0.0322101 125.373 0.0348015 118.724C0.0369963 112.648 0.0322174 106.573 0.0241387 100.497C0.0158991 94.2518 0.0124061 88.0069 0.014001 81.762C0.0148121 78.2585 0.0137623 74.755 0.0077459 71.2515C0.00267468 68.2683 0.00210139 65.2852 0.00723383 62.302C0.00972839 60.7815 0.0102209 59.2611 0.00510776 57.7406C-0.000383787 56.0883 0.00410901 54.4361 0.00948954 52.7838C0.00635695 52.3088 0.00322752 51.8338 0 51.3444C0.0507289 43.91 2.86286 37.5982 7.81485 32.1123C8.0662 31.8217 8.31754 31.5312 8.5765 31.2319C14.1484 25.1898 23.029 21.3008 31.1985 20.9402C33.4585 20.891 35.7159 20.9273 37.9756 20.9706C38.7633 20.9791 39.5509 20.9869 40.3386 20.9938C42.2416 21.0122 44.1441 21.0414 46.0468 21.0767C46.0432 20.8334 46.0396 20.5902 46.0359 20.3395C46.0214 19.2257 46.0125 18.1119 46.0037 16.998C45.9979 16.6154 45.9921 16.2327 45.9862 15.8385C45.9566 10.8699 47.5845 7.39107 50.9702 3.80871C56.1827 -1.10536 63.9714 -0.959883 69.892 2.50719ZM56.8427 10.6645C55.3536 12.4189 54.9149 13.4533 54.8924 15.7068C54.887 16.1815 54.8815 16.6562 54.8759 17.1453C54.8728 17.6608 54.8696 18.1763 54.8664 18.7074C54.863 19.2362 54.8595 19.7649 54.856 20.3097C54.8501 21.4312 54.8454 22.5526 54.8422 23.674C54.8385 24.8215 54.8296 25.9687 54.8161 27.116C54.798 28.7699 54.7911 30.4235 54.7867 32.0775C54.7793 32.5887 54.7719 33.0999 54.7642 33.6266C54.7716 36.4753 54.941 38.2946 56.6668 40.6012C58.0037 41.8435 59.358 42.2643 61.1538 42.4847C63.4121 42.1975 64.8739 41.4598 66.3576 39.7523C67.5652 38.0975 67.7656 37.0042 67.7868 35.011C67.7922 34.5631 67.7977 34.1153 67.8033 33.6539C67.8065 33.1698 67.8096 32.6857 67.8128 32.1869C67.8162 31.688 67.8197 31.1891 67.8232 30.6751C67.8291 29.618 67.8337 28.5608 67.837 27.5036C67.8443 25.892 67.8629 24.2807 67.8817 22.6692C67.886 21.6415 67.8896 20.6138 67.8925 19.5862C67.8999 19.1063 67.9073 18.6265 67.915 18.1321C67.9075 15.377 67.6842 13.1581 66.0124 10.89C63.1574 8.47149 59.7165 8.00531 56.8427 10.6645ZM134.156 10.6496C132.613 12.4365 132.229 13.808 132.213 16.1082C132.209 16.5673 132.205 17.0263 132.2 17.4993C132.199 17.9954 132.197 18.4914 132.195 19.0025C132.192 19.5129 132.19 20.0232 132.188 20.5489C132.184 21.6297 132.181 22.7104 132.179 23.7911C132.175 25.4428 132.162 27.0942 132.148 28.7457C132.146 29.7955 132.143 30.8453 132.142 31.8951C132.137 32.3886 132.131 32.8821 132.126 33.3905C132.134 36.1743 132.227 38.2968 134.193 40.4503C136.282 42.0757 137.699 42.5598 140.352 42.299C142.079 41.5644 143.351 40.7565 144.424 39.1996C145.315 36.8722 145.215 34.6503 145.209 32.1786C145.213 31.3876 145.213 31.3876 145.216 30.5806C145.22 29.1831 145.216 27.7859 145.212 26.3885C145.211 25.5341 145.216 24.6798 145.223 23.8254C145.236 22.1796 145.238 20.5341 145.236 18.8881C145.241 18.3801 145.245 17.872 145.25 17.3485C145.228 14.6518 145.186 12.9157 143.326 10.89C140.389 8.52964 137.1 7.99049 134.156 10.6496ZM13.762 38.9034C7.33649 46.3569 8.66445 55.2451 8.66445 64.7946C68.9435 64.7946 129.223 64.7946 191.328 64.7946C191.747 49.4748 191.747 49.4748 184.717 37.1791C179.646 32.344 173.277 29.9042 166.35 29.9486C165.817 29.9495 165.817 29.9495 165.273 29.9504C164.144 29.9528 163.014 29.9581 161.884 29.9635C161.116 29.9656 160.348 29.9676 159.58 29.9693C157.702 29.974 155.824 29.9813 153.946 29.99C153.939 30.2492 153.932 30.5084 153.924 30.7755C153.747 36.9716 153.592 42.1162 149.273 46.9679C145.97 49.8766 142.049 51.0546 137.687 50.9073C133.479 50.4735 129.928 48.6677 127.051 45.5619C123.365 40.9375 123.685 35.8272 123.36 29.99C107.94 29.99 92.5199 29.99 76.6324 29.99C76.4922 32.5113 76.352 35.0325 76.2076 37.6301C75.6193 41.9049 73.6972 45.3041 70.3235 48.0423C66.9183 50.3682 63.2953 51.18 59.2156 50.7879C54.5242 49.8043 51.3457 48.2544 48.6487 44.262C46.5926 41.0228 46.3364 37.7548 46.2061 34.0223C46.1897 33.6327 46.1733 33.2432 46.1563 32.8418C46.1167 31.8913 46.0803 30.9408 46.0468 29.99C43.8412 29.9582 41.6358 29.9353 39.4301 29.9201C38.6819 29.9138 37.9338 29.9051 37.1858 29.894C27.7493 29.7574 20.3232 31.8704 13.762 38.9034ZM8.66445 73.708C8.63817 89.413 8.61188 105.118 8.5848 121.299C8.5732 126.253 8.5616 131.207 8.54964 136.311C8.54538 140.762 8.54538 140.762 8.54282 145.213C8.54163 147.192 8.53687 149.17 8.52991 151.148C8.52113 153.677 8.51855 156.205 8.52035 158.733C8.51998 159.658 8.51747 160.583 8.51252 161.508C8.47037 169.775 8.95459 176.841 14.9352 183.11C15.249 183.425 15.5628 183.74 15.886 184.064C16.1166 184.304 16.3471 184.544 16.5846 184.792C22.6806 190.605 31.2641 191.347 39.2301 191.336C39.7707 191.337 40.3114 191.338 40.8684 191.339C42.3585 191.342 43.8485 191.342 45.3386 191.341C46.9498 191.341 48.5611 191.343 50.1723 191.345C53.325 191.349 56.4776 191.35 59.6303 191.35C62.1944 191.351 64.7586 191.351 67.3227 191.353C74.6017 191.356 81.8808 191.358 89.1599 191.358C89.5518 191.358 89.9437 191.358 90.3475 191.358C90.7399 191.358 91.1323 191.358 91.5366 191.358C97.8944 191.358 104.252 191.362 110.61 191.368C117.147 191.374 123.684 191.377 130.221 191.377C133.888 191.376 137.554 191.378 141.221 191.382C144.343 191.386 147.464 191.387 150.586 191.384C152.177 191.383 153.768 191.383 155.358 191.386C157.088 191.39 158.817 191.388 160.547 191.384C161.042 191.387 161.538 191.389 162.048 191.391C170.638 191.355 178.548 189.59 184.903 183.507C189.998 178.137 191.404 172.401 191.379 165.174C191.38 164.782 191.38 164.39 191.38 163.987C191.381 162.676 191.379 161.366 191.377 160.056C191.376 159.1 191.376 158.143 191.377 157.186C191.377 154.628 191.374 152.07 191.371 149.512C191.369 147.111 191.369 144.709 191.368 142.307C191.366 135.287 191.36 128.266 191.355 121.246C191.346 105.558 191.337 89.8708 191.328 73.708C131.049 73.708 70.7702 73.708 8.66445 73.708Z" fill="#EFCFFF" stroke="#EFCFFF" stroke-width="2" mask="url(#path-1-inside-1_286_632)"/>
</svg>
